# Blender v3.1.2 OBJ File: ''
# www.blender.org
o bullet2
v 0.196419 0.000546 1.335210
v 0.196419 0.000404 0.987562
v 0.138889 0.139293 0.987505
v 0.138889 0.139435 1.335153
v -0.000000 0.196823 0.987482
v -0.000000 0.196965 1.335130
v -0.138889 0.139293 0.987505
v -0.138889 0.139435 1.335153
v -0.196419 0.000404 0.987562
v -0.196419 0.000546 1.335210
v -0.138889 -0.138485 0.987619
v -0.138889 -0.138343 1.335267
v 0.000000 -0.196015 0.987642
v 0.000000 -0.195873 1.335290
v 0.138889 -0.138485 0.987619
v 0.138889 -0.138343 1.335267
v 0.196419 0.000262 0.639912
v 0.138889 0.139151 0.639855
v -0.000000 0.196681 0.639832
v -0.138889 0.139151 0.639855
v -0.196419 0.000262 0.639912
v -0.138889 -0.138627 0.639969
v 0.000000 -0.196157 0.639992
v 0.138889 -0.138627 0.639969
v 0.196419 0.000119 0.292262
v 0.138889 0.139008 0.292205
v -0.000000 0.196538 0.292182
v -0.138889 0.139008 0.292205
v -0.196419 0.000119 0.292262
v -0.138889 -0.138770 0.292319
v 0.000000 -0.196300 0.292342
v 0.138889 -0.138770 0.292319
v 0.196419 -0.000023 -0.055388
v 0.138889 0.138866 -0.055445
v -0.000000 0.196396 -0.055469
v -0.138889 0.138866 -0.055445
v -0.196419 -0.000023 -0.055388
v -0.138889 -0.138912 -0.055332
v 0.000000 -0.196442 -0.055308
v 0.138889 -0.138912 -0.055332
v 0.000415 -0.000454 -0.095572
v 0.000000 -0.000626 -0.095572
v -0.000415 -0.000454 -0.095572
v -0.000587 -0.000039 -0.095572
v -0.000415 0.000376 -0.095572
v 0.000000 0.000548 -0.095572
v 0.000415 0.000376 -0.095572
v 0.000587 -0.000039 -0.095572
v 0.017350 0.000944 2.308640
v 0.012268 0.013212 2.308635
v 0.000000 0.018293 2.308633
v -0.012268 0.013212 2.308635
v -0.017349 0.000944 2.308640
v -0.012268 -0.011324 2.308645
v 0.000000 -0.016406 2.308647
v 0.012268 -0.011324 2.308645
v 0.138889 0.139457 1.390473
v 0.196419 0.000568 1.390530
v 0.138889 -0.138321 1.390587
v -0.000000 0.196987 1.390450
v -0.138889 0.139457 1.390473
v -0.196419 0.000568 1.390530
v -0.138889 -0.138321 1.390587
v -0.000000 -0.195851 1.390610
v 0.110450 0.111061 1.494585
v 0.156199 0.000611 1.494630
v -0.000000 0.156810 1.494566
v 0.110450 -0.109839 1.494675
v -0.000000 -0.155588 1.494694
v -0.110450 0.111061 1.494585
v -0.156199 0.000611 1.494630
v -0.110450 -0.109839 1.494675
v 0.110450 0.111110 1.613725
v 0.156199 0.000660 1.613770
v -0.000000 0.156859 1.613706
v 0.110450 -0.109790 1.613815
v -0.110450 0.111110 1.613725
v -0.000000 -0.155539 1.613834
v -0.110450 -0.109790 1.613815
v -0.156199 0.000660 1.613770
v 0.092414 0.093074 1.613732
v 0.130693 0.000660 1.613770
v -0.000000 0.131353 1.613716
v 0.092414 -0.091754 1.613808
v -0.092414 0.093074 1.613732
v -0.000000 -0.130033 1.613823
v -0.130693 0.000660 1.613770
v -0.092414 -0.091754 1.613808
v 0.092414 0.093139 1.774072
v 0.130693 0.000725 1.774110
v -0.000000 0.131418 1.774056
v 0.092414 -0.091689 1.774148
v -0.092414 0.093139 1.774072
v -0.000000 -0.129968 1.774163
v -0.130693 0.000725 1.774110
v -0.092414 -0.091689 1.774148
v 0.076226 0.077035 1.980069
v 0.107799 0.000809 1.980100
v 0.000000 0.108608 1.980056
v 0.076226 -0.075416 1.980131
v -0.076226 0.077035 1.980069
v -0.000000 -0.106990 1.980144
v -0.107799 0.000809 1.980100
v -0.076226 -0.075416 1.980131
v 0.183096 -0.000031 -0.075903
v 0.129469 0.129438 -0.075956
v 0.129469 -0.129500 -0.075850
v -0.000000 0.183065 -0.075978
v -0.129469 0.129438 -0.075956
v -0.183096 -0.000031 -0.075903
v -0.129469 -0.129500 -0.075850
v -0.000000 -0.183127 -0.075828
v 0.183096 -0.000036 -0.088850
v 0.129469 0.129433 -0.088903
v 0.129469 -0.129505 -0.088797
v -0.000000 0.183060 -0.088925
v -0.000000 -0.183132 -0.088775
v -0.129469 0.129433 -0.088903
v -0.183096 -0.000036 -0.088850
v -0.129469 -0.129505 -0.088797
v 0.205452 -0.000036 -0.088850
v 0.145276 0.145240 -0.088909
v 0.145277 -0.145312 -0.088791
v 0.000000 0.205416 -0.088934
v -0.000000 -0.205488 -0.088766
v -0.145276 0.145240 -0.088909
v -0.145276 -0.145312 -0.088791
v -0.205452 -0.000036 -0.088850
v 0.205452 -0.000044 -0.108644
v 0.145276 0.145232 -0.108703
v 0.145277 -0.145320 -0.108585
v 0.000000 0.205408 -0.108728
v -0.000000 -0.205496 -0.108560
v -0.145276 0.145232 -0.108703
v -0.145276 -0.145320 -0.108585
v -0.205452 -0.000044 -0.108644
v 0.105957 -0.000044 -0.108644
v 0.074923 0.074879 -0.108675
v 0.074923 -0.074967 -0.108613
v 0.000000 0.105913 -0.108687
v -0.000000 -0.106001 -0.108601
v -0.074923 0.074879 -0.108675
v -0.074923 -0.074967 -0.108613
v -0.105957 -0.000044 -0.108644
v 0.105957 -0.000040 -0.098150
v 0.074923 0.074883 -0.098181
v 0.074923 -0.074963 -0.098120
v 0.000000 0.105917 -0.098194
v -0.000000 -0.105997 -0.098107
v -0.074923 0.074883 -0.098181
v -0.074923 -0.074963 -0.098120
v -0.105957 -0.000040 -0.098150
v 0.096921 -0.000040 -0.098150
v 0.068533 0.068493 -0.098178
v 0.068533 -0.068574 -0.098122
v 0.000000 0.096881 -0.098190
v -0.000000 -0.096961 -0.098111
v -0.068533 0.068493 -0.098178
v -0.068533 -0.068574 -0.098122
v -0.096921 -0.000040 -0.098150
v 0.096921 -0.000044 -0.108644
v 0.068533 0.068489 -0.108672
v 0.068533 -0.068578 -0.108616
v 0.000000 0.096876 -0.108684
v -0.000000 -0.096965 -0.108604
v -0.068533 0.068489 -0.108672
v -0.068533 -0.068578 -0.108616
v -0.096921 -0.000044 -0.108644
v 0.038994 -0.000044 -0.108644
v 0.027573 0.027528 -0.108655
v 0.027573 -0.027617 -0.108633
v 0.000000 0.038949 -0.108660
v -0.000000 -0.039038 -0.108628
v -0.027573 0.027528 -0.108655
v -0.027573 -0.027617 -0.108633
v -0.038994 -0.000044 -0.108644
vn 1.0000 -0.0000 -0.0000
vn 0.7071 0.7071 -0.0003
vn 0.0000 1.0000 -0.0004
vn -0.7071 0.7071 -0.0003
vn -1.0000 -0.0000 -0.0000
vn -0.7071 -0.7071 0.0003
vn -0.0000 -1.0000 0.0004
vn 0.7071 -0.7071 0.0003
vn 0.9619 0.0203 -0.2728
vn 0.6837 0.6714 -0.2860
vn 0.0085 0.9582 -0.2860
vn -0.6715 0.6835 -0.2861
vn -0.9583 0.0084 -0.2856
vn -0.6837 -0.6716 -0.2855
vn -0.0085 -0.9584 -0.2852
vn 0.6715 -0.6838 -0.2855
vn 0.0054 0.2148 -0.9766
vn 0.0000 -0.0004 -1.0000
vn -0.0131 -0.2080 -0.9780
vn 0.9829 0.0001 0.1843
vn 0.6950 -0.6949 0.1847
vn 0.7024 0.6900 0.1748
vn 0.0087 0.9846 0.1747
vn -0.6899 0.7025 0.1748
vn -0.9845 0.0088 0.1751
vn -0.7024 -0.6898 0.1754
vn -0.0087 -0.9844 0.1755
vn 0.9829 0.0001 0.1840
vn 0.0000 0.9830 0.1836
vn 0.6883 0.6995 0.1922
vn 0.6950 -0.6949 0.1844
vn -0.0000 -0.9828 0.1844
vn -0.9829 0.0001 0.1840
vn -0.6994 0.6884 0.1922
vn -0.6883 -0.6993 0.1928
vn -0.0000 0.0004 1.0000
vn 0.9583 -0.0001 -0.2858
vn 0.6775 0.6773 -0.2868
vn -0.0000 0.9581 -0.2865
vn -0.6776 0.6774 -0.2864
vn -0.9583 -0.0001 -0.2858
vn -0.6775 -0.6776 -0.2863
vn -0.0000 -0.9584 -0.2854
vn 0.6593 -0.6864 -0.3068
vn -0.1155 -0.1159 -0.9865
vn -0.0000 -0.1629 -0.9866
vn -0.0450 0.1081 -0.9931
vn 0.0450 -0.1091 -0.9930
vn 0.0368 0.1076 -0.9935
vn 0.0450 0.1083 -0.9931
vn -0.3194 -0.1327 -0.9383
vn -0.1531 -0.1535 -0.9762
vn -0.3194 0.1319 -0.9384
vn -0.0672 0.1618 -0.9845
vn 0.0672 -0.1626 -0.9844
vn 0.3194 -0.1327 -0.9383
vn 0.3194 0.1319 -0.9384
vn 0.0672 0.1618 -0.9845
vn 0.9985 0.0000 0.0554
vn 0.7066 0.7055 0.0543
vn 0.7060 -0.7060 0.0556
vn 0.0008 0.9985 0.0542
vn 0.0000 -0.9984 0.0558
vn -0.7055 0.7066 0.0543
vn -0.7060 -0.7060 0.0556
vn -0.9985 0.0008 0.0546
vn 0.6944 0.6945 0.1884
vn 0.9820 0.0001 0.1886
vn 0.6944 -0.6943 0.1889
vn -0.6944 0.6945 0.1884
vn 0.0036 0.9828 0.1844
vn 0.0000 -0.9820 0.1890
vn -0.6944 -0.6943 0.1890
vn -0.9828 0.0037 0.1848
vn 0.9641 0.0001 0.2654
vn 0.6817 0.6819 0.2652
vn 0.6817 -0.6816 0.2657
vn -0.6817 0.6819 0.2652
vn 0.0000 0.9642 0.2650
vn -0.0000 -0.9640 0.2658
vn -0.6817 -0.6816 0.2657
vn -0.9641 0.0001 0.2654
s 1
f 2/1/1 4/1/2 1/1/1
f 3/1/2 6/1/3 4/1/2
f 5/1/3 8/1/4 6/1/3
f 7/1/4 10/1/5 8/1/4
f 9/1/5 12/1/6 10/1/5
f 11/1/6 14/1/7 12/1/6
f 13/1/7 16/1/8 14/1/7
f 15/1/8 1/1/1 16/1/8
f 17/1/1 3/1/2 2/1/1
f 18/1/2 5/1/3 3/1/2
f 19/1/3 7/1/4 5/1/3
f 20/1/4 9/1/5 7/1/4
f 21/1/5 11/1/6 9/1/5
f 22/1/6 13/1/7 11/1/6
f 23/1/7 15/1/8 13/1/7
f 24/1/8 2/1/1 15/1/8
f 25/1/1 18/1/2 17/1/1
f 26/1/2 19/1/3 18/1/2
f 27/1/3 20/1/4 19/1/3
f 28/1/4 21/1/5 20/1/4
f 29/1/5 22/1/6 21/1/5
f 30/1/6 23/1/7 22/1/6
f 31/1/7 24/1/8 23/1/7
f 32/1/8 17/1/1 24/1/8
f 33/1/9 26/1/2 25/1/1
f 34/1/10 27/1/3 26/1/2
f 35/1/11 28/1/4 27/1/3
f 36/1/12 29/1/5 28/1/4
f 37/1/13 30/1/6 29/1/5
f 38/1/14 31/1/7 30/1/6
f 39/1/15 32/1/8 31/1/7
f 40/1/16 25/1/1 32/1/8
f 42/1/17 44/1/18 46/1/19
f 4/1/2 58/1/20 1/1/1
f 1/1/1 59/1/21 16/1/8
f 6/1/3 57/1/22 4/1/2
f 8/1/4 60/1/23 6/1/3
f 10/1/5 61/1/24 8/1/4
f 12/1/6 62/1/25 10/1/5
f 14/1/7 63/1/26 12/1/6
f 16/1/8 64/1/27 14/1/7
f 57/1/22 66/1/28 58/1/20
f 57/1/22 67/1/29 65/1/30
f 59/1/21 66/1/28 68/1/31
f 59/1/21 69/1/32 64/1/27
f 61/1/24 67/1/29 60/1/23
f 61/1/24 71/1/33 70/1/34
f 63/1/26 71/1/33 62/1/25
f 63/1/26 69/1/32 72/1/35
f 65/1/30 74/1/1 66/1/28
f 67/1/29 73/1/2 65/1/30
f 66/1/28 76/1/8 68/1/31
f 70/1/34 75/1/3 67/1/29
f 68/1/31 78/1/7 69/1/32
f 72/1/35 78/1/7 79/1/6
f 71/1/33 77/1/4 70/1/34
f 72/1/35 80/1/5 71/1/33
f 74/1/36 81/1/36 82/1/36
f 75/1/36 81/1/36 73/1/36
f 74/1/36 84/1/36 76/1/36
f 75/1/36 85/1/36 83/1/36
f 78/1/36 84/1/36 86/1/36
f 80/1/36 85/1/36 77/1/36
f 78/1/36 88/1/36 79/1/36
f 80/1/36 88/1/36 87/1/36
f 34/1/10 105/1/37 106/1/38
f 40/1/16 105/1/37 33/1/9
f 34/1/10 108/1/39 35/1/11
f 36/1/12 108/1/39 109/1/40
f 36/1/12 110/1/41 37/1/13
f 38/1/14 110/1/41 111/1/42
f 38/1/14 112/1/43 39/1/15
f 40/1/16 112/1/43 107/1/44
f 105/1/37 114/1/2 106/1/38
f 107/1/44 113/1/1 105/1/37
f 106/1/38 116/1/3 108/1/39
f 112/1/43 115/1/8 107/1/44
f 109/1/40 116/1/3 118/1/4
f 109/1/40 119/1/5 110/1/41
f 110/1/41 120/1/6 111/1/42
f 111/1/42 117/1/7 112/1/43
f 113/1/36 122/1/36 114/1/36
f 113/1/36 123/1/36 121/1/36
f 114/1/36 124/1/36 116/1/36
f 115/1/36 125/1/36 123/1/36
f 118/1/36 124/1/36 126/1/36
f 120/1/36 125/1/36 117/1/36
f 118/1/36 128/1/36 119/1/36
f 119/1/36 127/1/36 120/1/36
f 121/1/1 130/1/2 122/1/2
f 123/1/8 129/1/1 121/1/1
f 122/1/2 132/1/3 124/1/3
f 125/1/7 131/1/8 123/1/8
f 124/1/3 134/1/4 126/1/4
f 127/1/6 133/1/7 125/1/7
f 126/1/4 136/1/5 128/1/5
f 128/1/5 135/1/6 127/1/6
f 130/1/18 137/1/18 138/1/18
f 131/1/18 137/1/18 129/1/18
f 130/1/18 140/1/18 132/1/18
f 133/1/18 139/1/18 131/1/18
f 134/1/18 140/1/18 142/1/18
f 135/1/18 141/1/18 133/1/18
f 134/1/18 144/1/18 136/1/18
f 135/1/18 144/1/18 143/1/18
f 137/1/5 146/1/6 138/1/6
f 139/1/4 145/1/5 137/1/5
f 138/1/6 148/1/7 140/1/7
f 139/1/4 149/1/3 147/1/4
f 140/1/7 150/1/8 142/1/8
f 143/1/2 149/1/3 141/1/3
f 142/1/8 152/1/1 144/1/1
f 144/1/1 151/1/2 143/1/2
f 145/1/18 154/1/18 146/1/18
f 145/1/18 155/1/18 153/1/18
f 146/1/18 156/1/18 148/1/18
f 147/1/18 157/1/18 155/1/18
f 148/1/18 158/1/18 150/1/18
f 151/1/18 157/1/18 149/1/18
f 150/1/18 160/1/18 152/1/18
f 152/1/18 159/1/18 151/1/18
f 153/1/1 162/1/2 154/1/2
f 155/1/8 161/1/1 153/1/1
f 156/1/3 162/1/2 164/1/3
f 157/1/7 163/1/8 155/1/8
f 156/1/3 166/1/4 158/1/4
f 159/1/6 165/1/7 157/1/7
f 158/1/4 168/1/5 160/1/5
f 159/1/6 168/1/5 167/1/6
f 162/1/18 169/1/18 170/1/45
f 163/1/18 169/1/18 161/1/18
f 162/1/18 172/1/46 164/1/18
f 165/1/18 171/1/47 163/1/18
f 166/1/18 172/1/46 174/1/48
f 167/1/18 173/1/49 165/1/18
f 166/1/18 176/1/18 168/1/18
f 167/1/18 176/1/18 175/1/50
f 169/1/51 47/1/52 170/1/45
f 169/1/53 41/1/53 48/1/53
f 170/1/45 46/1/19 172/1/46
f 171/1/47 42/1/17 41/1/54
f 174/1/48 46/1/19 45/1/55
f 175/1/50 42/1/17 173/1/49
f 174/1/56 44/1/56 176/1/56
f 176/1/57 43/1/57 175/1/57
f 2/1/1 3/1/2 4/1/2
f 3/1/2 5/1/3 6/1/3
f 5/1/3 7/1/4 8/1/4
f 7/1/4 9/1/5 10/1/5
f 9/1/5 11/1/6 12/1/6
f 11/1/6 13/1/7 14/1/7
f 13/1/7 15/1/8 16/1/8
f 15/1/8 2/1/1 1/1/1
f 17/1/1 18/1/2 3/1/2
f 18/1/2 19/1/3 5/1/3
f 19/1/3 20/1/4 7/1/4
f 20/1/4 21/1/5 9/1/5
f 21/1/5 22/1/6 11/1/6
f 22/1/6 23/1/7 13/1/7
f 23/1/7 24/1/8 15/1/8
f 24/1/8 17/1/1 2/1/1
f 25/1/1 26/1/2 18/1/2
f 26/1/2 27/1/3 19/1/3
f 27/1/3 28/1/4 20/1/4
f 28/1/4 29/1/5 21/1/5
f 29/1/5 30/1/6 22/1/6
f 30/1/6 31/1/7 23/1/7
f 31/1/7 32/1/8 24/1/8
f 32/1/8 25/1/1 17/1/1
f 33/1/9 34/1/10 26/1/2
f 34/1/10 35/1/11 27/1/3
f 35/1/11 36/1/12 28/1/4
f 36/1/12 37/1/13 29/1/5
f 37/1/13 38/1/14 30/1/6
f 38/1/14 39/1/15 31/1/7
f 39/1/15 40/1/16 32/1/8
f 40/1/16 33/1/9 25/1/1
f 48/1/18 41/1/54 42/1/17
f 42/1/17 43/1/58 44/1/18
f 44/1/18 45/1/55 46/1/19
f 46/1/19 47/1/52 48/1/18
f 48/1/18 42/1/17 46/1/19
f 4/1/2 57/1/22 58/1/20
f 1/1/1 58/1/20 59/1/21
f 6/1/3 60/1/23 57/1/22
f 8/1/4 61/1/24 60/1/23
f 10/1/5 62/1/25 61/1/24
f 12/1/6 63/1/26 62/1/25
f 14/1/7 64/1/27 63/1/26
f 16/1/8 59/1/21 64/1/27
f 57/1/22 65/1/30 66/1/28
f 57/1/22 60/1/23 67/1/29
f 59/1/21 58/1/20 66/1/28
f 59/1/21 68/1/31 69/1/32
f 61/1/24 70/1/34 67/1/29
f 61/1/24 62/1/25 71/1/33
f 63/1/26 72/1/35 71/1/33
f 63/1/26 64/1/27 69/1/32
f 65/1/30 73/1/2 74/1/1
f 67/1/29 75/1/3 73/1/2
f 66/1/28 74/1/1 76/1/8
f 70/1/34 77/1/4 75/1/3
f 68/1/31 76/1/8 78/1/7
f 72/1/35 69/1/32 78/1/7
f 71/1/33 80/1/5 77/1/4
f 72/1/35 79/1/6 80/1/5
f 74/1/36 73/1/36 81/1/36
f 75/1/36 83/1/36 81/1/36
f 74/1/36 82/1/36 84/1/36
f 75/1/36 77/1/36 85/1/36
f 78/1/36 76/1/36 84/1/36
f 80/1/36 87/1/36 85/1/36
f 78/1/36 86/1/36 88/1/36
f 80/1/36 79/1/36 88/1/36
f 34/1/10 33/1/9 105/1/37
f 40/1/16 107/1/44 105/1/37
f 34/1/10 106/1/38 108/1/39
f 36/1/12 35/1/11 108/1/39
f 36/1/12 109/1/40 110/1/41
f 38/1/14 37/1/13 110/1/41
f 38/1/14 111/1/42 112/1/43
f 40/1/16 39/1/15 112/1/43
f 105/1/37 113/1/1 114/1/2
f 107/1/44 115/1/8 113/1/1
f 106/1/38 114/1/2 116/1/3
f 112/1/43 117/1/7 115/1/8
f 109/1/40 108/1/39 116/1/3
f 109/1/40 118/1/4 119/1/5
f 110/1/41 119/1/5 120/1/6
f 111/1/42 120/1/6 117/1/7
f 113/1/36 121/1/36 122/1/36
f 113/1/36 115/1/36 123/1/36
f 114/1/36 122/1/36 124/1/36
f 115/1/36 117/1/36 125/1/36
f 118/1/36 116/1/36 124/1/36
f 120/1/36 127/1/36 125/1/36
f 118/1/36 126/1/36 128/1/36
f 119/1/36 128/1/36 127/1/36
f 121/1/1 129/1/1 130/1/2
f 123/1/8 131/1/8 129/1/1
f 122/1/2 130/1/2 132/1/3
f 125/1/7 133/1/7 131/1/8
f 124/1/3 132/1/3 134/1/4
f 127/1/6 135/1/6 133/1/7
f 126/1/4 134/1/4 136/1/5
f 128/1/5 136/1/5 135/1/6
f 130/1/18 129/1/18 137/1/18
f 131/1/18 139/1/18 137/1/18
f 130/1/18 138/1/18 140/1/18
f 133/1/18 141/1/18 139/1/18
f 134/1/18 132/1/18 140/1/18
f 135/1/18 143/1/18 141/1/18
f 134/1/18 142/1/18 144/1/18
f 135/1/18 136/1/18 144/1/18
f 137/1/5 145/1/5 146/1/6
f 139/1/4 147/1/4 145/1/5
f 138/1/6 146/1/6 148/1/7
f 139/1/4 141/1/3 149/1/3
f 140/1/7 148/1/7 150/1/8
f 143/1/2 151/1/2 149/1/3
f 142/1/8 150/1/8 152/1/1
f 144/1/1 152/1/1 151/1/2
f 145/1/18 153/1/18 154/1/18
f 145/1/18 147/1/18 155/1/18
f 146/1/18 154/1/18 156/1/18
f 147/1/18 149/1/18 157/1/18
f 148/1/18 156/1/18 158/1/18
f 151/1/18 159/1/18 157/1/18
f 150/1/18 158/1/18 160/1/18
f 152/1/18 160/1/18 159/1/18
f 153/1/1 161/1/1 162/1/2
f 155/1/8 163/1/8 161/1/1
f 156/1/3 154/1/2 162/1/2
f 157/1/7 165/1/7 163/1/8
f 156/1/3 164/1/3 166/1/4
f 159/1/6 167/1/6 165/1/7
f 158/1/4 166/1/4 168/1/5
f 159/1/6 160/1/5 168/1/5
f 162/1/18 161/1/18 169/1/18
f 163/1/18 171/1/47 169/1/18
f 162/1/18 170/1/45 172/1/46
f 165/1/18 173/1/49 171/1/47
f 166/1/18 164/1/18 172/1/46
f 167/1/18 175/1/50 173/1/49
f 166/1/18 174/1/48 176/1/18
f 167/1/18 168/1/18 176/1/18
f 169/1/51 48/1/51 47/1/52
f 169/1/53 171/1/53 41/1/53
f 170/1/45 47/1/52 46/1/19
f 171/1/47 173/1/49 42/1/17
f 174/1/48 172/1/46 46/1/19
f 175/1/50 43/1/58 42/1/17
f 174/1/56 45/1/56 44/1/56
f 176/1/57 44/1/57 43/1/57
f 52/1/36 54/1/36 56/1/36
f 81/1/2 90/1/59 82/1/1
f 83/1/3 89/1/60 81/1/2
f 82/1/1 92/1/61 84/1/8
f 85/1/4 91/1/62 83/1/3
f 84/1/8 94/1/63 86/1/7
f 87/1/5 93/1/64 85/1/4
f 86/1/7 96/1/65 88/1/6
f 88/1/6 95/1/66 87/1/5
f 90/1/59 97/1/67 98/1/68
f 91/1/62 97/1/67 89/1/60
f 90/1/59 100/1/69 92/1/61
f 91/1/62 101/1/70 99/1/71
f 92/1/61 102/1/72 94/1/63
f 95/1/66 101/1/70 93/1/64
f 94/1/63 104/1/73 96/1/65
f 95/1/66 104/1/73 103/1/74
f 97/1/67 49/1/75 98/1/68
f 99/1/71 50/1/76 97/1/67
f 98/1/68 56/1/77 100/1/69
f 99/1/71 52/1/78 51/1/79
f 100/1/69 55/1/80 102/1/72
f 103/1/74 52/1/78 101/1/70
f 102/1/72 54/1/81 104/1/73
f 103/1/74 54/1/81 53/1/82
f 56/1/36 49/1/36 50/1/36
f 50/1/36 51/1/36 52/1/36
f 52/1/36 53/1/36 54/1/36
f 54/1/36 55/1/36 56/1/36
f 56/1/36 50/1/36 52/1/36
f 81/1/2 89/1/60 90/1/59
f 83/1/3 91/1/62 89/1/60
f 82/1/1 90/1/59 92/1/61
f 85/1/4 93/1/64 91/1/62
f 84/1/8 92/1/61 94/1/63
f 87/1/5 95/1/66 93/1/64
f 86/1/7 94/1/63 96/1/65
f 88/1/6 96/1/65 95/1/66
f 90/1/59 89/1/60 97/1/67
f 91/1/62 99/1/71 97/1/67
f 90/1/59 98/1/68 100/1/69
f 91/1/62 93/1/64 101/1/70
f 92/1/61 100/1/69 102/1/72
f 95/1/66 103/1/74 101/1/70
f 94/1/63 102/1/72 104/1/73
f 95/1/66 96/1/65 104/1/73
f 97/1/67 50/1/76 49/1/75
f 99/1/71 51/1/79 50/1/76
f 98/1/68 49/1/75 56/1/77
f 99/1/71 101/1/70 52/1/78
f 100/1/69 56/1/77 55/1/80
f 103/1/74 53/1/82 52/1/78
f 102/1/72 55/1/80 54/1/81
f 103/1/74 104/1/73 54/1/81
